<svg width="17" height="20" viewBox="0 0 17 20" fill="none" xmlns="http://www.w3.org/2000/svg">
    <g clip-path="url(#clip0_2_316)">
        <path d="M8.50027 18.75C9.1704 18.75 9.71455 18.1883 9.71455 17.4988H10.9288C10.9288 18.8781 9.83902 20 8.50027 20C7.16152 20 6.07169 18.8781 6.07169 17.4988H7.28598C7.28598 18.1883 7.83013 18.75 8.50027 18.75ZM0.55504 13.0785C1.61602 12.0387 2.42732 10.9504 2.42732 7.26172C2.42732 4.15273 4.83274 1.61719 7.89312 1.31055V0.625C7.89312 0.279687 8.16482 0 8.50027 0C8.83571 0 9.10741 0.279687 9.10741 0.625V1.31094C12.1678 1.61758 14.5732 4.15273 14.5732 7.26172C14.5732 10.95 15.3849 12.0387 16.4459 13.0785C16.976 13.598 17.1433 14.3836 16.8728 15.0797C16.5965 15.7906 15.9317 16.25 15.1788 16.25H1.82169C1.06884 16.25 0.404013 15.7902 0.127762 15.0793C-0.142796 14.3832 0.0249271 13.598 0.55504 13.0785ZM1.82169 15H15.1788C15.7188 15 15.9886 14.3566 15.6084 13.984C14.2856 12.6875 13.3589 11.2363 13.3589 7.26211C13.3589 4.63008 11.1857 2.5 8.50027 2.5C5.81518 2.5 3.6416 4.62969 3.6416 7.26172C3.6416 11.2207 2.72292 12.6797 1.39214 13.9836C1.0104 14.3582 1.28399 15 1.82169 15Z" fill="#C4C4C4"/>
    </g>
    <defs>
        <clipPath id="clip0_2_316">
            <rect width="17" height="20" fill="white" transform="matrix(-1 0 0 1 17 0)"/>
        </clipPath>
    </defs>
</svg>
