<svg width="48" height="48" viewBox="0 0 48 48" fill="none" xmlns="http://www.w3.org/2000/svg">
    <g clip-path="url(#clip0_162_18)">
        <path d="M24 4.5C29.1717 4.5 34.1316 6.55446 37.7886 10.2114C41.4455 13.8684 43.5 18.8283 43.5 24C43.5 29.1717 41.4455 34.1316 37.7886 37.7886C34.1316 41.4455 29.1717 43.5 24 43.5C18.8283 43.5 13.8684 41.4455 10.2114 37.7886C6.55446 34.1316 4.5 29.1717 4.5 24C4.5 18.8283 6.55446 13.8684 10.2114 10.2114C13.8684 6.55446 18.8283 4.5 24 4.5ZM24 48C30.3652 48 36.4697 45.4714 40.9706 40.9706C45.4714 36.4697 48 30.3652 48 24C48 17.6348 45.4714 11.5303 40.9706 7.02944C36.4697 2.52856 30.3652 0 24 0C17.6348 0 11.5303 2.52856 7.02944 7.02944C2.52856 11.5303 0 17.6348 0 24C0 30.3652 2.52856 36.4697 7.02944 40.9706C11.5303 45.4714 17.6348 48 24 48ZM34.5938 19.5938C35.475 18.7125 35.475 17.2875 34.5938 16.4156C33.7125 15.5438 32.2875 15.5344 31.4156 16.4156L21.0094 26.8219L16.6031 22.4156C15.7219 21.5344 14.2969 21.5344 13.425 22.4156C12.5531 23.2969 12.5437 24.7219 13.425 25.5938L19.425 31.5938C20.3062 32.475 21.7313 32.475 22.6031 31.5938L34.5938 19.5938Z" fill="#EE95C5"/>
    </g>
    <defs>
        <clipPath id="clip0_162_18">
            <rect width="48" height="48" fill="white"/>
        </clipPath>
    </defs>
</svg>
